ISO-10303-21;
HEADER;
FILE_DESCRIPTION(('Open CASCADE Model'),'2;1');
FILE_NAME('Open CASCADE Shape Model','2026-07-22T12:12:31',('Author'),(
    'Open CASCADE'),'Open CASCADE STEP processor 7.9','Open CASCADE 7.9'
  ,'Unknown');
FILE_SCHEMA(('AUTOMOTIVE_DESIGN { 1 0 10303 214 1 1 1 1 }'));
ENDSEC;
DATA;
#1 = APPLICATION_PROTOCOL_DEFINITION('international standard',
  'automotive_design',2000,#2);
#2 = APPLICATION_CONTEXT(
  'core data for automotive mechanical design processes');
#3 = SHAPE_DEFINITION_REPRESENTATION(#4,#10);
#4 = PRODUCT_DEFINITION_SHAPE('','',#5);
#5 = PRODUCT_DEFINITION('design','',#6,#9);
#6 = PRODUCT_DEFINITION_FORMATION('','',#7);
#7 = PRODUCT('Open CASCADE STEP translator 7.9 1',
  'Open CASCADE STEP translator 7.9 1','',(#8));
#8 = PRODUCT_CONTEXT('',#2,'mechanical');
#9 = PRODUCT_DEFINITION_CONTEXT('part definition',#2,'design');
#10 = ADVANCED_BREP_SHAPE_REPRESENTATION('',(#11,#15),#554);
#11 = AXIS2_PLACEMENT_3D('',#12,#13,#14);
#12 = CARTESIAN_POINT('',(0.,0.,0.));
#13 = DIRECTION('',(0.,0.,1.));
#14 = DIRECTION('',(1.,0.,-0.));
#15 = MANIFOLD_SOLID_BREP('',#16);
#16 = CLOSED_SHELL('',(#17,#261,#404,#497,#540,#547));
#17 = ADVANCED_FACE('',(#18),#39,.T.);
#18 = FACE_BOUND('',#19,.T.);
#19 = EDGE_LOOP('',(#20,#143,#179,#227));
#20 = ORIENTED_EDGE('',*,*,#21,.F.);
#21 = EDGE_CURVE('',#22,#24,#26,.T.);
#22 = VERTEX_POINT('',#23);
#23 = CARTESIAN_POINT('',(170.,-2.84217094304E-14,-5.684341886081E-14));
#24 = VERTEX_POINT('',#25);
#25 = CARTESIAN_POINT('',(-170.,-2.84217094304E-14,540.));
#26 = SURFACE_CURVE('',#27,(#38,#116),.PCURVE_S1.);
#27 = ( BOUNDED_CURVE() B_SPLINE_CURVE(9,(#28,#29,#30,#31,#32,#33,#34,
#35,#36,#37),.UNSPECIFIED.,.F.,.F.) B_SPLINE_CURVE_WITH_KNOTS((10,10),(
0.,540.),.PIECEWISE_BEZIER_KNOTS.) CURVE() GEOMETRIC_REPRESENTATION_ITEM
() RATIONAL_B_SPLINE_CURVE((1.132556574715,1.132556574715,1.132556574715
    ,1.132556574715,1.132556574715,1.132556574715,1.132556574715,
1.132556574715,1.132556574715,1.132556574715)) REPRESENTATION_ITEM('') 
  );
#28 = CARTESIAN_POINT('',(170.,1.42108547152E-14,0.));
#29 = CARTESIAN_POINT('',(170.,59.341194567807,59.999999999996));
#30 = CARTESIAN_POINT('',(146.696767143,118.68305899415,120.00000000003)
  );
#31 = CARTESIAN_POINT('',(100.09012649372,167.56157605226,179.9999999999
    ));
#32 = CARTESIAN_POINT('',(35.658054434894,195.54098839475,
    240.00000000013));
#33 = CARTESIAN_POINT('',(-35.65805443489,195.54098839476,
    299.99999999987));
#34 = CARTESIAN_POINT('',(-100.0901264937,167.56157605226,
    360.00000000007));
#35 = CARTESIAN_POINT('',(-146.696767143,118.68305899415,419.99999999997
    ));
#36 = CARTESIAN_POINT('',(-169.9999999999,59.341194567809,480.));
#37 = CARTESIAN_POINT('',(-170.,6.394884621841E-14,540.));
#38 = PCURVE('',#39,#110);
#39 = ( BOUNDED_SURFACE() B_SPLINE_SURFACE(6,9,(
    (#40,#41,#42,#43,#44,#45,#46,#47,#48,#49)
    ,(#50,#51,#52,#53,#54,#55,#56,#57,#58,#59)
    ,(#60,#61,#62,#63,#64,#65,#66,#67,#68,#69)
    ,(#70,#71,#72,#73,#74,#75,#76,#77,#78,#79)
    ,(#80,#81,#82,#83,#84,#85,#86,#87,#88,#89)
    ,(#90,#91,#92,#93,#94,#95,#96,#97,#98,#99)
    ,(#100,#101,#102,#103,#104,#105,#106,#107,#108,#109
)),.UNSPECIFIED.,.F.,.F.,.F.) B_SPLINE_SURFACE_WITH_KNOTS((7,7),(10,10),
  (0.,3.14159265359),(0.,540.),.PIECEWISE_BEZIER_KNOTS.) 
GEOMETRIC_REPRESENTATION_ITEM() RATIONAL_B_SPLINE_SURFACE((
    (1.132556574715,1.132556574715,1.132556574715,1.132556574715
      ,1.132556574715,1.132556574715,1.132556574715,1.132556574715
      ,1.132556574715,1.132556574715)
    ,(1.036346631341,1.036346631341,1.036346631341,1.036346631341
      ,1.036346631341,1.036346631341,1.036346631341,1.036346631341
      ,1.036346631341,1.036346631341)
    ,(0.992316309354,0.992316309354,0.992316309354,0.992316309354
      ,0.992316309354,0.992316309354,0.992316309354,0.992316309354
      ,0.992316309354,0.992316309354)
    ,(0.976461899693,0.976461899693,0.976461899693,0.976461899693
      ,0.976461899693,0.976461899693,0.976461899693,0.976461899693
      ,0.976461899693,0.976461899693)
    ,(0.992316309354,0.992316309354,0.992316309354,0.992316309354
      ,0.992316309354,0.992316309353,0.992316309354,0.992316309354
      ,0.992316309354,0.992316309354)
    ,(1.036346631341,1.036346631341,1.036346631341,1.036346631341
      ,1.036346631341,1.036346631341,1.036346631341,1.036346631341
      ,1.036346631341,1.036346631341)
    ,(1.132556574715,1.132556574715,1.132556574715,1.132556574715
      ,1.132556574715,1.132556574715,1.132556574715,1.132556574715
,1.132556574715,1.132556574715))) REPRESENTATION_ITEM('') SURFACE() );
#40 = CARTESIAN_POINT('',(170.,1.42108547152E-14,0.));
#41 = CARTESIAN_POINT('',(170.,59.341194567807,59.999999999996));
#42 = CARTESIAN_POINT('',(146.696767143,118.68305899415,120.00000000003)
  );
#43 = CARTESIAN_POINT('',(100.09012649372,167.56157605226,179.9999999999
    ));
#44 = CARTESIAN_POINT('',(35.658054434894,195.54098839475,
    240.00000000013));
#45 = CARTESIAN_POINT('',(-35.65805443489,195.54098839476,
    299.99999999987));
#46 = CARTESIAN_POINT('',(-100.0901264937,167.56157605226,
    360.00000000007));
#47 = CARTESIAN_POINT('',(-146.696767143,118.68305899415,419.99999999997
    ));
#48 = CARTESIAN_POINT('',(-169.9999999999,59.341194567809,480.));
#49 = CARTESIAN_POINT('',(-170.,6.394884621841E-14,540.));
#50 = CARTESIAN_POINT('',(170.,52.566591266134,1.136868377216E-13));
#51 = CARTESIAN_POINT('',(151.65079811711,111.90778583394,
    59.999999999997));
#52 = CARTESIAN_POINT('',(109.99815624676,164.04393545574,
    120.00000000002));
#53 = CARTESIAN_POINT('',(48.277533080486,198.51096881209,
    179.99999999992));
#54 = CARTESIAN_POINT('',(-24.80619975758,206.56700235255,
    240.00000000011));
#55 = CARTESIAN_POINT('',(-96.12230862739,184.51497443695,299.9999999999
    ));
#56 = CARTESIAN_POINT('',(-151.9027199069,136.61218329244,
    360.00000000004));
#57 = CARTESIAN_POINT('',(-183.3953780392,73.322182532564,
    419.99999999999));
#58 = CARTESIAN_POINT('',(-188.3492018828,6.774603301676,479.99999999999
    ));
#59 = CARTESIAN_POINT('',(-170.,-52.56659126613,540.));
#60 = CARTESIAN_POINT('',(135.51551618215,98.670179729736,0.));
#61 = CARTESIAN_POINT('',(101.07312598579,145.9740186281,59.999999999997
    ));
#62 = CARTESIAN_POINT('',(48.054172704761,179.75289636142,
    120.00000000002));
#63 = CARTESIAN_POINT('',(-17.46803334318,191.66531906662,
    179.99999999992));
#64 = CARTESIAN_POINT('',(-85.06967539201,176.57190951169,
    240.00000000011));
#65 = CARTESIAN_POINT('',(-141.9193183661,135.17912551283,
    299.99999999989));
#66 = CARTESIAN_POINT('',(-177.041741067,75.478133533601,360.00000000005
    ));
#67 = CARTESIAN_POINT('',(-185.8245110792,9.463527187635,419.99999999998
    ));
#68 = CARTESIAN_POINT('',(-169.9579063785,-51.36634083136,480.));
#69 = CARTESIAN_POINT('',(-135.5155161821,-98.67017972973,540.));
#70 = CARTESIAN_POINT('',(78.108108108108,117.25975722469,0.));
#71 = CARTESIAN_POINT('',(37.176731234909,144.52463040449,
    59.999999999995));
#72 = CARTESIAN_POINT('',(-14.46199845425,155.71609707854,
    120.00000000002));
#73 = CARTESIAN_POINT('',(-69.59046651381,146.0262448841,179.99999999993
    ));
#74 = CARTESIAN_POINT('',(-118.4935626818,114.43877333673,
    240.00000000008));
#75 = CARTESIAN_POINT('',(-151.2604235139,65.247540323312,
    299.99999999992));
#76 = CARTESIAN_POINT('',(-161.5651773458,7.949257434203,360.00000000004
    ));
#77 = CARTESIAN_POINT('',(-149.2644331261,-46.65598881364,
    419.99999999998));
#78 = CARTESIAN_POINT('',(-119.0394849813,-89.99488404488,480.));
#79 = CARTESIAN_POINT('',(-78.1081081081,-117.2597572246,540.));
#80 = CARTESIAN_POINT('',(20.700700034058,98.670179729736,
    1.136868377216E-13));
#81 = CARTESIAN_POINT('',(-13.74169016231,105.89608719097,
    59.999999999996));
#82 = CARTESIAN_POINT('',(-51.02207640726,99.596581077256,
    120.00000000001));
#83 = CARTESIAN_POINT('',(-85.06703023504,78.497368784705,
    179.99999999996));
#84 = CARTESIAN_POINT('',(-109.152457534,44.507188147215,240.00000000004
    ));
#85 = CARTESIAN_POINT('',(-117.836536224,3.114404148347,299.99999999995)
  );
#86 = CARTESIAN_POINT('',(-109.4427441752,-37.68981674832,
    360.00000000002));
#87 = CARTESIAN_POINT('',(-86.74826196718,-70.69278809652,
    419.99999999999));
#88 = CARTESIAN_POINT('',(-55.14309023042,-91.44427226849,480.));
#89 = CARTESIAN_POINT('',(-20.70070003405,-98.67017972973,540.));
#90 = CARTESIAN_POINT('',(-13.78378378378,52.566591266134,
    1.136868377216E-13));
#91 = CARTESIAN_POINT('',(-32.13298566666,47.755143057934,
    59.999999999996));
#92 = CARTESIAN_POINT('',(-48.59294336729,35.73792573233,120.));
#93 = CARTESIAN_POINT('',(-59.92800907488,17.36331902586,179.99999999999
    ));
#94 = CARTESIAN_POINT('',(-63.35544779531,-4.828660776912,
    239.99999999999));
#95 = CARTESIAN_POINT('',(-57.57306058966,-26.88068869251,300.));
#96 = CARTESIAN_POINT('',(-43.69717775157,-44.53546649378,
    359.99999999999));
#97 = CARTESIAN_POINT('',(-24.80427842518,-54.98382719084,420.));
#98 = CARTESIAN_POINT('',(-4.5654180991,-57.37803947433,479.99999999999)
  );
#99 = CARTESIAN_POINT('',(13.783783783783,-52.56659126613,540.));
#100 = CARTESIAN_POINT('',(-13.78378378378,-7.105427357601E-15,
    1.136868377216E-13));
#101 = CARTESIAN_POINT('',(-13.78378378378,-4.8114482082,60.000000000001
    ));
#102 = CARTESIAN_POINT('',(-11.89433247105,-9.622950729258,
    119.99999999999));
#103 = CARTESIAN_POINT('',(-8.115415661652,-13.58607373396,
    180.00000000002));
#104 = CARTESIAN_POINT('',(-2.89119360283,-15.85467473471,
    239.99999999995));
#105 = CARTESIAN_POINT('',(2.891193602831,-15.8546747347,300.00000000004
    ));
#106 = CARTESIAN_POINT('',(8.115415661652,-13.58607373397,
    359.99999999996));
#107 = CARTESIAN_POINT('',(11.894332471055,-9.622950729254,
    420.00000000001));
#108 = CARTESIAN_POINT('',(13.783783783784,-4.811448208201,
    479.99999999999));
#109 = CARTESIAN_POINT('',(13.783783783784,-2.13162820728E-14,540.));
#110 = DEFINITIONAL_REPRESENTATION('',(#111),#115);
#111 = LINE('',#112,#113);
#112 = CARTESIAN_POINT('',(0.,0.));
#113 = VECTOR('',#114,1.);
#114 = DIRECTION('',(0.,1.));
#115 = ( GEOMETRIC_REPRESENTATION_CONTEXT(2) 
PARAMETRIC_REPRESENTATION_CONTEXT() REPRESENTATION_CONTEXT('2D SPACE',''
  ) );
#116 = PCURVE('',#117,#138);
#117 = B_SPLINE_SURFACE_WITH_KNOTS('',1,9,(
    (#118,#119,#120,#121,#122,#123,#124,#125,#126,#127)
    ,(#128,#129,#130,#131,#132,#133,#134,#135,#136,#137
  )),.UNSPECIFIED.,.F.,.F.,.F.,(2,2),(10,10),(0.,4.),(0.,540.),
  .PIECEWISE_BEZIER_KNOTS.);
#118 = CARTESIAN_POINT('',(166.,5.684341886081E-14,5.684341886081E-14));
#119 = CARTESIAN_POINT('',(166.,57.944931166212,59.999999999998));
#120 = CARTESIAN_POINT('',(143.24507850435,115.89051642959,
    120.00000000002));
#121 = CARTESIAN_POINT('',(97.735064693855,163.61895073338,
    179.9999999999));
#122 = CARTESIAN_POINT('',(34.819041389379,190.94002396194,
    240.00000000014));
#123 = CARTESIAN_POINT('',(-34.81904138937,190.94002396193,
    299.99999999986));
#124 = CARTESIAN_POINT('',(-97.73506469386,163.61895073339,
    360.00000000008));
#125 = CARTESIAN_POINT('',(-143.2450785043,115.89051642958,
    419.99999999997));
#126 = CARTESIAN_POINT('',(-166.,57.944931166213,480.));
#127 = CARTESIAN_POINT('',(-166.,0.,540.));
#128 = CARTESIAN_POINT('',(170.,-2.84217094304E-14,-5.684341886081E-14)
  );
#129 = CARTESIAN_POINT('',(170.,59.341194567807,59.999999999997));
#130 = CARTESIAN_POINT('',(146.696767143,118.68305899415,120.00000000003
    ));
#131 = CARTESIAN_POINT('',(100.09012649371,167.56157605226,
    179.99999999989));
#132 = CARTESIAN_POINT('',(35.658054434898,195.54098839476,
    240.00000000016));
#133 = CARTESIAN_POINT('',(-35.65805443489,195.54098839475,
    299.99999999984));
#134 = CARTESIAN_POINT('',(-100.0901264937,167.56157605227,
    360.00000000009));
#135 = CARTESIAN_POINT('',(-146.696767143,118.68305899415,
    419.99999999996));
#136 = CARTESIAN_POINT('',(-170.,59.341194567809,480.));
#137 = CARTESIAN_POINT('',(-170.,-2.84217094304E-14,540.));
#138 = DEFINITIONAL_REPRESENTATION('',(#139),#142);
#139 = B_SPLINE_CURVE_WITH_KNOTS('',1,(#140,#141),.UNSPECIFIED.,.F.,.F.,
  (2,2),(0.,540.),.PIECEWISE_BEZIER_KNOTS.);
#140 = CARTESIAN_POINT('',(4.,0.));
#141 = CARTESIAN_POINT('',(4.,540.));
#142 = ( GEOMETRIC_REPRESENTATION_CONTEXT(2) 
PARAMETRIC_REPRESENTATION_CONTEXT() REPRESENTATION_CONTEXT('2D SPACE',''
  ) );
#143 = ORIENTED_EDGE('',*,*,#144,.T.);
#144 = EDGE_CURVE('',#22,#145,#147,.T.);
#145 = VERTEX_POINT('',#146);
#146 = CARTESIAN_POINT('',(-13.78378378378,3.19744231092E-14,0.));
#147 = SURFACE_CURVE('',#148,(#156,#163),.PCURVE_S1.);
#148 = ( BOUNDED_CURVE() B_SPLINE_CURVE(6,(#149,#150,#151,#152,#153,#154
,#155),.UNSPECIFIED.,.F.,.F.) B_SPLINE_CURVE_WITH_KNOTS((7,7),(0.,
3.14159265359),.PIECEWISE_BEZIER_KNOTS.) CURVE() 
GEOMETRIC_REPRESENTATION_ITEM() RATIONAL_B_SPLINE_CURVE((1.132556574715,
    1.036346631341,0.992316309354,0.976461899693,0.992316309354,
1.036346631341,1.132556574715)) REPRESENTATION_ITEM('') );
#149 = CARTESIAN_POINT('',(170.,1.42108547152E-14,0.));
#150 = CARTESIAN_POINT('',(170.,52.566591266134,1.136868377216E-13));
#151 = CARTESIAN_POINT('',(135.51551618215,98.670179729736,0.));
#152 = CARTESIAN_POINT('',(78.108108108108,117.25975722469,0.));
#153 = CARTESIAN_POINT('',(20.700700034058,98.670179729736,
    1.136868377216E-13));
#154 = CARTESIAN_POINT('',(-13.78378378378,52.566591266134,
    1.136868377216E-13));
#155 = CARTESIAN_POINT('',(-13.78378378378,-7.105427357601E-15,
    1.136868377216E-13));
#156 = PCURVE('',#39,#157);
#157 = DEFINITIONAL_REPRESENTATION('',(#158),#162);
#158 = LINE('',#159,#160);
#159 = CARTESIAN_POINT('',(0.,0.));
#160 = VECTOR('',#161,1.);
#161 = DIRECTION('',(1.,0.));
#162 = ( GEOMETRIC_REPRESENTATION_CONTEXT(2) 
PARAMETRIC_REPRESENTATION_CONTEXT() REPRESENTATION_CONTEXT('2D SPACE',''
  ) );
#163 = PCURVE('',#164,#169);
#164 = PLANE('',#165);
#165 = AXIS2_PLACEMENT_3D('',#166,#167,#168);
#166 = CARTESIAN_POINT('',(78.108108108108,55.151005095906,
    7.936623601498E-14));
#167 = DIRECTION('',(2.433254088781E-16,0.,1.));
#168 = DIRECTION('',(1.,0.,-2.433254088781E-16));
#169 = DEFINITIONAL_REPRESENTATION('',(#170),#178);
#170 = ( BOUNDED_CURVE() B_SPLINE_CURVE(6,(#171,#172,#173,#174,#175,#176
,#177),.UNSPECIFIED.,.F.,.F.) B_SPLINE_CURVE_WITH_KNOTS((7,7),(0.,
3.14159265359),.PIECEWISE_BEZIER_KNOTS.) CURVE() 
GEOMETRIC_REPRESENTATION_ITEM() RATIONAL_B_SPLINE_CURVE((1.132556574715,
    1.036346631341,0.992316309354,0.976461899693,0.992316309354,
1.036346631341,1.132556574715)) REPRESENTATION_ITEM('') );
#171 = CARTESIAN_POINT('',(91.891891891892,-55.1510050959));
#172 = CARTESIAN_POINT('',(91.891891891892,-2.584413829772));
#173 = CARTESIAN_POINT('',(57.407408074049,43.51917463383));
#174 = CARTESIAN_POINT('',(3.979039320257E-13,62.108752128784));
#175 = CARTESIAN_POINT('',(-57.40740807405,43.51917463383));
#176 = CARTESIAN_POINT('',(-91.89189189189,-2.584413829772));
#177 = CARTESIAN_POINT('',(-91.89189189189,-55.1510050959));
#178 = ( GEOMETRIC_REPRESENTATION_CONTEXT(2) 
PARAMETRIC_REPRESENTATION_CONTEXT() REPRESENTATION_CONTEXT('2D SPACE',''
  ) );
#179 = ORIENTED_EDGE('',*,*,#180,.T.);
#180 = EDGE_CURVE('',#145,#181,#183,.T.);
#181 = VERTEX_POINT('',#182);
#182 = CARTESIAN_POINT('',(13.783783783784,-3.19744231092E-14,540.));
#183 = SURFACE_CURVE('',#184,(#195,#202),.PCURVE_S1.);
#184 = ( BOUNDED_CURVE() B_SPLINE_CURVE(9,(#185,#186,#187,#188,#189,#190
    ,#191,#192,#193,#194),.UNSPECIFIED.,.F.,.F.) 
B_SPLINE_CURVE_WITH_KNOTS((10,10),(0.,540.),.PIECEWISE_BEZIER_KNOTS.) 
CURVE() GEOMETRIC_REPRESENTATION_ITEM() RATIONAL_B_SPLINE_CURVE((
    1.132556574715,1.132556574715,1.132556574715,1.132556574715,
    1.132556574715,1.132556574715,1.132556574715,1.132556574715,
1.132556574715,1.132556574715)) REPRESENTATION_ITEM('') );
#185 = CARTESIAN_POINT('',(-13.78378378378,-7.105427357601E-15,
    1.136868377216E-13));
#186 = CARTESIAN_POINT('',(-13.78378378378,-4.8114482082,60.000000000001
    ));
#187 = CARTESIAN_POINT('',(-11.89433247105,-9.622950729258,
    119.99999999999));
#188 = CARTESIAN_POINT('',(-8.115415661652,-13.58607373396,
    180.00000000002));
#189 = CARTESIAN_POINT('',(-2.89119360283,-15.85467473471,
    239.99999999995));
#190 = CARTESIAN_POINT('',(2.891193602831,-15.8546747347,300.00000000004
    ));
#191 = CARTESIAN_POINT('',(8.115415661652,-13.58607373397,
    359.99999999996));
#192 = CARTESIAN_POINT('',(11.894332471055,-9.622950729254,
    420.00000000001));
#193 = CARTESIAN_POINT('',(13.783783783784,-4.811448208201,
    479.99999999999));
#194 = CARTESIAN_POINT('',(13.783783783784,-2.13162820728E-14,540.));
#195 = PCURVE('',#39,#196);
#196 = DEFINITIONAL_REPRESENTATION('',(#197),#201);
#197 = LINE('',#198,#199);
#198 = CARTESIAN_POINT('',(3.14159265359,0.));
#199 = VECTOR('',#200,1.);
#200 = DIRECTION('',(0.,1.));
#201 = ( GEOMETRIC_REPRESENTATION_CONTEXT(2) 
PARAMETRIC_REPRESENTATION_CONTEXT() REPRESENTATION_CONTEXT('2D SPACE',''
  ) );
#202 = PCURVE('',#203,#222);
#203 = B_SPLINE_SURFACE_WITH_KNOTS('',1,8,(
    (#204,#205,#206,#207,#208,#209,#210,#211,#212)
    ,(#213,#214,#215,#216,#217,#218,#219,#220,#221
  )),.UNSPECIFIED.,.F.,.F.,.F.,(2,2),(9,9),(0.,4.),(0.,540.),
  .PIECEWISE_BEZIER_KNOTS.);
#204 = CARTESIAN_POINT('',(-13.78378378378,3.19744231092E-14,0.));
#205 = CARTESIAN_POINT('',(-13.78378378378,-5.412879234226,
    67.500000000001));
#206 = CARTESIAN_POINT('',(-11.35394178394,-10.82582829926,
    134.99999999999));
#207 = CARTESIAN_POINT('',(-6.498616147558,-14.96619645131,202.5));
#208 = CARTESIAN_POINT('',(-4.671818487623E-13,-16.56545736142,
    269.99999999999));
#209 = CARTESIAN_POINT('',(6.498616147559,-14.96619645131,337.5));
#210 = CARTESIAN_POINT('',(11.353941783945,-10.82582829926,
    404.99999999999));
#211 = CARTESIAN_POINT('',(13.783783783784,-5.412879234226,472.5));
#212 = CARTESIAN_POINT('',(13.783783783784,-3.19744231092E-14,540.));
#213 = CARTESIAN_POINT('',(-9.783783783784,1.7763568394E-15,0.));
#214 = CARTESIAN_POINT('',(-9.783783783784,-3.842082907431,67.5));
#215 = CARTESIAN_POINT('',(-8.059072403507,-7.684215381047,135.));
#216 = CARTESIAN_POINT('',(-4.612743226306,-10.62306493211,202.5));
#217 = CARTESIAN_POINT('',(-1.714184350021E-13,-11.75822659771,270.));
#218 = CARTESIAN_POINT('',(4.612743226307,-10.62306493211,
    337.49999999999));
#219 = CARTESIAN_POINT('',(8.059072403506,-7.684215381047,405.));
#220 = CARTESIAN_POINT('',(9.783783783784,-3.842082907431,472.5));
#221 = CARTESIAN_POINT('',(9.783783783784,0.,540.));
#222 = DEFINITIONAL_REPRESENTATION('',(#223),#226);
#223 = B_SPLINE_CURVE_WITH_KNOTS('',1,(#224,#225),.UNSPECIFIED.,.F.,.F.,
  (2,2),(0.,540.),.PIECEWISE_BEZIER_KNOTS.);
#224 = CARTESIAN_POINT('',(0.,0.));
#225 = CARTESIAN_POINT('',(0.,540.));
#226 = ( GEOMETRIC_REPRESENTATION_CONTEXT(2) 
PARAMETRIC_REPRESENTATION_CONTEXT() REPRESENTATION_CONTEXT('2D SPACE',''
  ) );
#227 = ORIENTED_EDGE('',*,*,#228,.F.);
#228 = EDGE_CURVE('',#24,#181,#229,.T.);
#229 = SURFACE_CURVE('',#230,(#238,#245),.PCURVE_S1.);
#230 = ( BOUNDED_CURVE() B_SPLINE_CURVE(6,(#231,#232,#233,#234,#235,#236
,#237),.UNSPECIFIED.,.F.,.F.) B_SPLINE_CURVE_WITH_KNOTS((7,7),(0.,
3.14159265359),.PIECEWISE_BEZIER_KNOTS.) CURVE() 
GEOMETRIC_REPRESENTATION_ITEM() RATIONAL_B_SPLINE_CURVE((1.132556574715,
    1.036346631341,0.992316309354,0.976461899693,0.992316309354,
1.036346631341,1.132556574715)) REPRESENTATION_ITEM('') );
#231 = CARTESIAN_POINT('',(-170.,6.394884621841E-14,540.));
#232 = CARTESIAN_POINT('',(-170.,-52.56659126613,540.));
#233 = CARTESIAN_POINT('',(-135.5155161821,-98.67017972973,540.));
#234 = CARTESIAN_POINT('',(-78.1081081081,-117.2597572246,540.));
#235 = CARTESIAN_POINT('',(-20.70070003405,-98.67017972973,540.));
#236 = CARTESIAN_POINT('',(13.783783783783,-52.56659126613,540.));
#237 = CARTESIAN_POINT('',(13.783783783784,-2.13162820728E-14,540.));
#238 = PCURVE('',#39,#239);
#239 = DEFINITIONAL_REPRESENTATION('',(#240),#244);
#240 = LINE('',#241,#242);
#241 = CARTESIAN_POINT('',(0.,540.));
#242 = VECTOR('',#243,1.);
#243 = DIRECTION('',(1.,0.));
#244 = ( GEOMETRIC_REPRESENTATION_CONTEXT(2) 
PARAMETRIC_REPRESENTATION_CONTEXT() REPRESENTATION_CONTEXT('2D SPACE',''
  ) );
#245 = PCURVE('',#246,#251);
#246 = PLANE('',#247);
#247 = AXIS2_PLACEMENT_3D('',#248,#249,#250);
#248 = CARTESIAN_POINT('',(-78.1081081081,-55.1510050959,540.));
#249 = DIRECTION('',(0.,-4.786589705311E-16,1.));
#250 = DIRECTION('',(0.,1.,4.786589705311E-16));
#251 = DEFINITIONAL_REPRESENTATION('',(#252),#260);
#252 = ( BOUNDED_CURVE() B_SPLINE_CURVE(6,(#253,#254,#255,#256,#257,#258
,#259),.UNSPECIFIED.,.F.,.F.) B_SPLINE_CURVE_WITH_KNOTS((7,7),(0.,
3.14159265359),.PIECEWISE_BEZIER_KNOTS.) CURVE() 
GEOMETRIC_REPRESENTATION_ITEM() RATIONAL_B_SPLINE_CURVE((1.132556574715,
    1.036346631341,0.992316309354,0.976461899693,0.992316309354,
1.036346631341,1.132556574715)) REPRESENTATION_ITEM('') );
#253 = CARTESIAN_POINT('',(55.151005095906,91.891891891892));
#254 = CARTESIAN_POINT('',(2.584413829772,91.891891891892));
#255 = CARTESIAN_POINT('',(-43.51917463383,57.407408074049));
#256 = CARTESIAN_POINT('',(-62.10875212878,3.126388037344E-13));
#257 = CARTESIAN_POINT('',(-43.51917463383,-57.40740807405));
#258 = CARTESIAN_POINT('',(2.584413829772,-91.89189189189));
#259 = CARTESIAN_POINT('',(55.151005095906,-91.89189189189));
#260 = ( GEOMETRIC_REPRESENTATION_CONTEXT(2) 
PARAMETRIC_REPRESENTATION_CONTEXT() REPRESENTATION_CONTEXT('2D SPACE',''
  ) );
#261 = ADVANCED_FACE('',(#262),#203,.T.);
#262 = FACE_BOUND('',#263,.T.);
#263 = EDGE_LOOP('',(#264,#265,#286,#385));
#264 = ORIENTED_EDGE('',*,*,#180,.F.);
#265 = ORIENTED_EDGE('',*,*,#266,.T.);
#266 = EDGE_CURVE('',#145,#267,#269,.T.);
#267 = VERTEX_POINT('',#268);
#268 = CARTESIAN_POINT('',(-9.783783783784,-7.105427357601E-15,
    1.136868377216E-13));
#269 = SURFACE_CURVE('',#270,(#273,#280),.PCURVE_S1.);
#270 = B_SPLINE_CURVE_WITH_KNOTS('',1,(#271,#272),.UNSPECIFIED.,.F.,.F.,
  (2,2),(0.,4.),.PIECEWISE_BEZIER_KNOTS.);
#271 = CARTESIAN_POINT('',(-13.78378378378,3.19744231092E-14,0.));
#272 = CARTESIAN_POINT('',(-9.783783783784,1.7763568394E-15,0.));
#273 = PCURVE('',#203,#274);
#274 = DEFINITIONAL_REPRESENTATION('',(#275),#279);
#275 = LINE('',#276,#277);
#276 = CARTESIAN_POINT('',(0.,0.));
#277 = VECTOR('',#278,1.);
#278 = DIRECTION('',(1.,0.));
#279 = ( GEOMETRIC_REPRESENTATION_CONTEXT(2) 
PARAMETRIC_REPRESENTATION_CONTEXT() REPRESENTATION_CONTEXT('2D SPACE',''
  ) );
#280 = PCURVE('',#164,#281);
#281 = DEFINITIONAL_REPRESENTATION('',(#282),#285);
#282 = B_SPLINE_CURVE_WITH_KNOTS('',1,(#283,#284),.UNSPECIFIED.,.F.,.F.,
  (2,2),(0.,4.),.PIECEWISE_BEZIER_KNOTS.);
#283 = CARTESIAN_POINT('',(-91.89189189189,-55.1510050959));
#284 = CARTESIAN_POINT('',(-87.89189189189,-55.1510050959));
#285 = ( GEOMETRIC_REPRESENTATION_CONTEXT(2) 
PARAMETRIC_REPRESENTATION_CONTEXT() REPRESENTATION_CONTEXT('2D SPACE',''
  ) );
#286 = ORIENTED_EDGE('',*,*,#287,.T.);
#287 = EDGE_CURVE('',#267,#288,#290,.T.);
#288 = VERTEX_POINT('',#289);
#289 = CARTESIAN_POINT('',(9.783783783784,7.105427357601E-15,540.));
#290 = SURFACE_CURVE('',#291,(#301,#308),.PCURVE_S1.);
#291 = B_SPLINE_CURVE_WITH_KNOTS('',8,(#292,#293,#294,#295,#296,#297,
    #298,#299,#300),.UNSPECIFIED.,.F.,.F.,(9,9),(0.,540.),
  .PIECEWISE_BEZIER_KNOTS.);
#292 = CARTESIAN_POINT('',(-9.783783783784,1.7763568394E-15,0.));
#293 = CARTESIAN_POINT('',(-9.783783783784,-3.842082907431,67.5));
#294 = CARTESIAN_POINT('',(-8.059072403507,-7.684215381047,135.));
#295 = CARTESIAN_POINT('',(-4.612743226306,-10.62306493211,202.5));
#296 = CARTESIAN_POINT('',(-1.714184350021E-13,-11.75822659771,270.));
#297 = CARTESIAN_POINT('',(4.612743226307,-10.62306493211,
    337.49999999999));
#298 = CARTESIAN_POINT('',(8.059072403506,-7.684215381047,405.));
#299 = CARTESIAN_POINT('',(9.783783783784,-3.842082907431,472.5));
#300 = CARTESIAN_POINT('',(9.783783783784,0.,540.));
#301 = PCURVE('',#203,#302);
#302 = DEFINITIONAL_REPRESENTATION('',(#303),#307);
#303 = LINE('',#304,#305);
#304 = CARTESIAN_POINT('',(4.,0.));
#305 = VECTOR('',#306,1.);
#306 = DIRECTION('',(0.,1.));
#307 = ( GEOMETRIC_REPRESENTATION_CONTEXT(2) 
PARAMETRIC_REPRESENTATION_CONTEXT() REPRESENTATION_CONTEXT('2D SPACE',''
  ) );
#308 = PCURVE('',#309,#380);
#309 = ( BOUNDED_SURFACE() B_SPLINE_SURFACE(6,9,(
    (#310,#311,#312,#313,#314,#315,#316,#317,#318,#319)
    ,(#320,#321,#322,#323,#324,#325,#326,#327,#328,#329)
    ,(#330,#331,#332,#333,#334,#335,#336,#337,#338,#339)
    ,(#340,#341,#342,#343,#344,#345,#346,#347,#348,#349)
    ,(#350,#351,#352,#353,#354,#355,#356,#357,#358,#359)
    ,(#360,#361,#362,#363,#364,#365,#366,#367,#368,#369)
    ,(#370,#371,#372,#373,#374,#375,#376,#377,#378,#379
)),.UNSPECIFIED.,.F.,.F.,.F.) B_SPLINE_SURFACE_WITH_KNOTS((7,7),(10,10),
  (0.,3.14159265359),(0.,540.),.PIECEWISE_BEZIER_KNOTS.) 
GEOMETRIC_REPRESENTATION_ITEM() RATIONAL_B_SPLINE_SURFACE((
    (1.132556574715,1.132556574715,1.132556574715,1.132556574715
      ,1.132556574715,1.132556574715,1.132556574715,1.132556574715
      ,1.132556574715,1.132556574715)
    ,(1.036346631341,1.036346631341,1.036346631341,1.036346631341
      ,1.036346631341,1.036346631341,1.036346631341,1.036346631341
      ,1.036346631341,1.036346631341)
    ,(0.992316309354,0.992316309354,0.992316309354,0.992316309354
      ,0.992316309354,0.992316309354,0.992316309354,0.992316309354
      ,0.992316309354,0.992316309354)
    ,(0.976461899693,0.976461899693,0.976461899693,0.976461899693
      ,0.976461899693,0.976461899693,0.976461899693,0.976461899693
      ,0.976461899693,0.976461899693)
    ,(0.992316309354,0.992316309354,0.992316309354,0.992316309354
      ,0.992316309354,0.992316309353,0.992316309354,0.992316309354
      ,0.992316309354,0.992316309354)
    ,(1.036346631341,1.036346631341,1.036346631341,1.036346631341
      ,1.036346631341,1.036346631341,1.036346631341,1.036346631341
      ,1.036346631341,1.036346631341)
    ,(1.132556574715,1.132556574715,1.132556574715,1.132556574715
      ,1.132556574715,1.132556574715,1.132556574715,1.132556574715
,1.132556574715,1.132556574715))) REPRESENTATION_ITEM('') SURFACE() );
#310 = CARTESIAN_POINT('',(-9.783783783784,-7.105427357601E-15,
    1.136868377216E-13));
#311 = CARTESIAN_POINT('',(-9.783783783784,-3.415184806605,
    60.000000000001));
#312 = CARTESIAN_POINT('',(-8.442643832395,-6.830408164687,
    119.99999999999));
#313 = CARTESIAN_POINT('',(-5.760353861801,-9.643448415091,
    180.00000000002));
#314 = CARTESIAN_POINT('',(-2.052180557302,-11.25371030189,
    239.99999999996));
#315 = CARTESIAN_POINT('',(2.052180557303,-11.25371030189,
    300.00000000003));
#316 = CARTESIAN_POINT('',(5.7603538618,-9.643448415089,359.99999999997)
  );
#317 = CARTESIAN_POINT('',(8.442643832396,-6.830408164688,
    420.00000000001));
#318 = CARTESIAN_POINT('',(9.783783783784,-3.415184806605,
    479.99999999999));
#319 = CARTESIAN_POINT('',(9.783783783784,7.105427357601E-15,540.));
#320 = CARTESIAN_POINT('',(-9.783783783784,50.278398469843,
    1.136868377216E-13));
#321 = CARTESIAN_POINT('',(-27.33425570235,46.863213663239,
    59.999999999999));
#322 = CARTESIAN_POINT('',(-43.54378578373,36.555936027393,
    119.99999999999));
#323 = CARTESIAN_POINT('',(-55.31757556174,19.958735483429,
    180.00000000001));
#324 = CARTESIAN_POINT('',(-59.884461332,-0.707652245792,239.99999999996
    ));
#325 = CARTESIAN_POINT('',(-55.78010021739,-21.79976835799,
    300.00000000003));
#326 = CARTESIAN_POINT('',(-43.79686783814,-39.2456323136,
    359.99999999997));
#327 = CARTESIAN_POINT('',(-26.65849811894,-50.21675235677,
    420.00000000001));
#328 = CARTESIAN_POINT('',(-7.766688134786,-53.69358327644,
    479.99999999999));
#329 = CARTESIAN_POINT('',(9.783783783784,-50.27839846984,540.));
#330 = CARTESIAN_POINT('',(23.199610738459,94.375124847383,
    1.136868377216E-13));
#331 = CARTESIAN_POINT('',(-9.743522472892,102.47331669872,
    59.999999999994));
#332 = CARTESIAN_POINT('',(-45.86718009138,97.634861669071,
    120.00000000002));
#333 = CARTESIAN_POINT('',(-79.36230991847,78.431656017474,
    179.99999999995));
#334 = CARTESIAN_POINT('',(-103.6879541762,46.480636195764,
    240.00000000005));
#335 = CARTESIAN_POINT('',(-113.4203422065,6.889655735665,
    299.99999999995));
#336 = CARTESIAN_POINT('',(-106.6805684292,-32.69796967469,
    360.00000000002));
#337 = CARTESIAN_POINT('',(-85.906096495,-65.24191143479,419.99999999999
    ));
#338 = CARTESIAN_POINT('',(-56.14274394981,-86.27693299603,480.));
#339 = CARTESIAN_POINT('',(-23.19961073845,-94.37512484738,540.));
#340 = CARTESIAN_POINT('',(78.108108108108,112.15550896902,0.));
#341 = CARTESIAN_POINT('',(38.958449992918,139.42038214883,
    59.999999999995));
#342 = CARTESIAN_POINT('',(-10.89854082573,151.3115281503,
    120.00000000002));
#343 = CARTESIAN_POINT('',(-64.55943191216,143.02103986313,
    179.99999999993));
#344 = CARTESIAN_POINT('',(-112.6224465117,113.3681406182,
    240.00000000008));
#345 = CARTESIAN_POINT('',(-145.3893073438,66.318173041834,
    299.99999999992));
#346 = CARTESIAN_POINT('',(-156.5341427442,10.954462455173,
    360.00000000004));
#347 = CARTESIAN_POINT('',(-145.7009754976,-42.2514198854,
    419.99999999998));
#348 = CARTESIAN_POINT('',(-117.2577662233,-84.89063578922,480.));
#349 = CARTESIAN_POINT('',(-78.1081081081,-112.155508969,540.));
#350 = CARTESIAN_POINT('',(133.01660547775,94.375124847383,
    1.136868377216E-13));
#351 = CARTESIAN_POINT('',(100.0734722664,140.80667935564,
    59.999999999995));
#352 = CARTESIAN_POINT('',(48.896338176942,174.30201969969,
    120.00000000003));
#353 = CARTESIAN_POINT('',(-14.70585759719,186.673471993,179.99999999991
    ));
#354 = CARTESIAN_POINT('',(-80.65348137449,172.79665792437,
    240.00000000013));
#355 = CARTESIAN_POINT('',(-136.4548150082,133.20567746428,
    299.99999999988));
#356 = CARTESIAN_POINT('',(-171.3370207505,75.543846300835,
    360.00000000007));
#357 = CARTESIAN_POINT('',(-180.6696147633,11.42524659582,
    419.99999999997));
#358 = CARTESIAN_POINT('',(-165.9597386891,-47.94357033911,480.));
#359 = CARTESIAN_POINT('',(-133.0166054777,-94.37512484738,540.));
#360 = CARTESIAN_POINT('',(166.,50.278398469843,1.136868377216E-13));
#361 = CARTESIAN_POINT('',(148.44952808143,108.22332963605,
    59.999999999998));
#362 = CARTESIAN_POINT('',(108.143936553,159.27686062167,120.00000000002
    ));
#363 = CARTESIAN_POINT('',(48.177842993917,193.2211346319,
    179.99999999992));
#364 = CARTESIAN_POINT('',(-23.01323938531,201.48608201804,
    240.00000000011));
#365 = CARTESIAN_POINT('',(-92.65132216408,180.39396590583,
    299.99999999989));
#366 = CARTESIAN_POINT('',(-147.2922863937,134.01676683487,
    360.00000000006));
#367 = CARTESIAN_POINT('',(-178.3462204556,72.504172237499,
    419.99999999998));
#368 = CARTESIAN_POINT('',(-183.5504719185,7.666532696371,
    479.99999999999));
#369 = CARTESIAN_POINT('',(-166.,-50.27839846984,540.));
#370 = CARTESIAN_POINT('',(166.,1.42108547152E-14,1.136868377216E-13));
#371 = CARTESIAN_POINT('',(166.,57.944931166211,59.999999999997));
#372 = CARTESIAN_POINT('',(143.24507850434,115.89051642959,
    120.00000000002));
#373 = CARTESIAN_POINT('',(97.73506469387,163.61895073338,
    179.99999999991));
#374 = CARTESIAN_POINT('',(34.819041389365,190.94002396194,
    240.00000000013));
#375 = CARTESIAN_POINT('',(-34.81904138937,190.94002396193,
    299.99999999987));
#376 = CARTESIAN_POINT('',(-97.73506469386,163.61895073339,
    360.00000000007));
#377 = CARTESIAN_POINT('',(-143.2450785043,115.89051642958,
    419.99999999997));
#378 = CARTESIAN_POINT('',(-165.9999999999,57.944931166215,480.));
#379 = CARTESIAN_POINT('',(-166.,1.42108547152E-14,540.));
#380 = DEFINITIONAL_REPRESENTATION('',(#381),#384);
#381 = B_SPLINE_CURVE_WITH_KNOTS('',1,(#382,#383),.UNSPECIFIED.,.F.,.F.,
  (2,2),(0.,540.),.PIECEWISE_BEZIER_KNOTS.);
#382 = CARTESIAN_POINT('',(0.,0.));
#383 = CARTESIAN_POINT('',(0.,540.));
#384 = ( GEOMETRIC_REPRESENTATION_CONTEXT(2) 
PARAMETRIC_REPRESENTATION_CONTEXT() REPRESENTATION_CONTEXT('2D SPACE',''
  ) );
#385 = ORIENTED_EDGE('',*,*,#386,.F.);
#386 = EDGE_CURVE('',#181,#288,#387,.T.);
#387 = SURFACE_CURVE('',#388,(#391,#398),.PCURVE_S1.);
#388 = B_SPLINE_CURVE_WITH_KNOTS('',1,(#389,#390),.UNSPECIFIED.,.F.,.F.,
  (2,2),(0.,4.),.PIECEWISE_BEZIER_KNOTS.);
#389 = CARTESIAN_POINT('',(13.783783783784,-3.19744231092E-14,540.));
#390 = CARTESIAN_POINT('',(9.783783783784,0.,540.));
#391 = PCURVE('',#203,#392);
#392 = DEFINITIONAL_REPRESENTATION('',(#393),#397);
#393 = LINE('',#394,#395);
#394 = CARTESIAN_POINT('',(0.,540.));
#395 = VECTOR('',#396,1.);
#396 = DIRECTION('',(1.,0.));
#397 = ( GEOMETRIC_REPRESENTATION_CONTEXT(2) 
PARAMETRIC_REPRESENTATION_CONTEXT() REPRESENTATION_CONTEXT('2D SPACE',''
  ) );
#398 = PCURVE('',#246,#399);
#399 = DEFINITIONAL_REPRESENTATION('',(#400),#403);
#400 = B_SPLINE_CURVE_WITH_KNOTS('',1,(#401,#402),.UNSPECIFIED.,.F.,.F.,
  (2,2),(0.,4.),.PIECEWISE_BEZIER_KNOTS.);
#401 = CARTESIAN_POINT('',(55.151005095906,-91.89189189189));
#402 = CARTESIAN_POINT('',(55.151005095906,-87.89189189189));
#403 = ( GEOMETRIC_REPRESENTATION_CONTEXT(2) 
PARAMETRIC_REPRESENTATION_CONTEXT() REPRESENTATION_CONTEXT('2D SPACE',''
  ) );
#404 = ADVANCED_FACE('',(#405),#309,.T.);
#405 = FACE_BOUND('',#406,.T.);
#406 = EDGE_LOOP('',(#407,#408,#439,#468));
#407 = ORIENTED_EDGE('',*,*,#287,.F.);
#408 = ORIENTED_EDGE('',*,*,#409,.T.);
#409 = EDGE_CURVE('',#267,#410,#412,.T.);
#410 = VERTEX_POINT('',#411);
#411 = CARTESIAN_POINT('',(166.,5.684341886081E-14,5.684341886081E-14));
#412 = SURFACE_CURVE('',#413,(#421,#428),.PCURVE_S1.);
#413 = ( BOUNDED_CURVE() B_SPLINE_CURVE(6,(#414,#415,#416,#417,#418,#419
,#420),.UNSPECIFIED.,.F.,.F.) B_SPLINE_CURVE_WITH_KNOTS((7,7),(0.,
3.14159265359),.PIECEWISE_BEZIER_KNOTS.) CURVE() 
GEOMETRIC_REPRESENTATION_ITEM() RATIONAL_B_SPLINE_CURVE((1.132556574715,
    1.036346631341,0.992316309354,0.976461899693,0.992316309354,
1.036346631341,1.132556574715)) REPRESENTATION_ITEM('') );
#414 = CARTESIAN_POINT('',(-9.783783783784,-7.105427357601E-15,
    1.136868377216E-13));
#415 = CARTESIAN_POINT('',(-9.783783783784,50.278398469843,
    1.136868377216E-13));
#416 = CARTESIAN_POINT('',(23.199610738459,94.375124847383,
    1.136868377216E-13));
#417 = CARTESIAN_POINT('',(78.108108108108,112.15550896902,0.));
#418 = CARTESIAN_POINT('',(133.01660547775,94.375124847383,
    1.136868377216E-13));
#419 = CARTESIAN_POINT('',(166.,50.278398469843,1.136868377216E-13));
#420 = CARTESIAN_POINT('',(166.,1.42108547152E-14,1.136868377216E-13));
#421 = PCURVE('',#309,#422);
#422 = DEFINITIONAL_REPRESENTATION('',(#423),#427);
#423 = LINE('',#424,#425);
#424 = CARTESIAN_POINT('',(0.,0.));
#425 = VECTOR('',#426,1.);
#426 = DIRECTION('',(1.,0.));
#427 = ( GEOMETRIC_REPRESENTATION_CONTEXT(2) 
PARAMETRIC_REPRESENTATION_CONTEXT() REPRESENTATION_CONTEXT('2D SPACE',''
  ) );
#428 = PCURVE('',#164,#429);
#429 = DEFINITIONAL_REPRESENTATION('',(#430),#438);
#430 = ( BOUNDED_CURVE() B_SPLINE_CURVE(6,(#431,#432,#433,#434,#435,#436
,#437),.UNSPECIFIED.,.F.,.F.) B_SPLINE_CURVE_WITH_KNOTS((7,7),(0.,
3.14159265359),.PIECEWISE_BEZIER_KNOTS.) CURVE() 
GEOMETRIC_REPRESENTATION_ITEM() RATIONAL_B_SPLINE_CURVE((1.132556574715,
    1.036346631341,0.992316309354,0.976461899693,0.992316309354,
1.036346631341,1.132556574715)) REPRESENTATION_ITEM('') );
#431 = CARTESIAN_POINT('',(-87.89189189189,-55.1510050959));
#432 = CARTESIAN_POINT('',(-87.89189189189,-4.872606626063));
#433 = CARTESIAN_POINT('',(-54.90849736964,39.224119751477));
#434 = CARTESIAN_POINT('',(-2.84217094304E-13,57.004503873121));
#435 = CARTESIAN_POINT('',(54.90849736965,39.224119751477));
#436 = CARTESIAN_POINT('',(87.891891891892,-4.872606626063));
#437 = CARTESIAN_POINT('',(87.891891891892,-55.1510050959));
#438 = ( GEOMETRIC_REPRESENTATION_CONTEXT(2) 
PARAMETRIC_REPRESENTATION_CONTEXT() REPRESENTATION_CONTEXT('2D SPACE',''
  ) );
#439 = ORIENTED_EDGE('',*,*,#440,.T.);
#440 = EDGE_CURVE('',#410,#441,#443,.T.);
#441 = VERTEX_POINT('',#442);
#442 = CARTESIAN_POINT('',(-166.,0.,540.));
#443 = SURFACE_CURVE('',#444,(#455,#462),.PCURVE_S1.);
#444 = ( BOUNDED_CURVE() B_SPLINE_CURVE(9,(#445,#446,#447,#448,#449,#450
    ,#451,#452,#453,#454),.UNSPECIFIED.,.F.,.F.) 
B_SPLINE_CURVE_WITH_KNOTS((10,10),(0.,540.),.PIECEWISE_BEZIER_KNOTS.) 
CURVE() GEOMETRIC_REPRESENTATION_ITEM() RATIONAL_B_SPLINE_CURVE((
    1.132556574715,1.132556574715,1.132556574715,1.132556574715,
    1.132556574715,1.132556574715,1.132556574715,1.132556574715,
1.132556574715,1.132556574715)) REPRESENTATION_ITEM('') );
#445 = CARTESIAN_POINT('',(166.,1.42108547152E-14,1.136868377216E-13));
#446 = CARTESIAN_POINT('',(166.,57.944931166211,59.999999999997));
#447 = CARTESIAN_POINT('',(143.24507850434,115.89051642959,
    120.00000000002));
#448 = CARTESIAN_POINT('',(97.73506469387,163.61895073338,
    179.99999999991));
#449 = CARTESIAN_POINT('',(34.819041389365,190.94002396194,
    240.00000000013));
#450 = CARTESIAN_POINT('',(-34.81904138937,190.94002396193,
    299.99999999987));
#451 = CARTESIAN_POINT('',(-97.73506469386,163.61895073339,
    360.00000000007));
#452 = CARTESIAN_POINT('',(-143.2450785043,115.89051642958,
    419.99999999997));
#453 = CARTESIAN_POINT('',(-165.9999999999,57.944931166215,480.));
#454 = CARTESIAN_POINT('',(-166.,1.42108547152E-14,540.));
#455 = PCURVE('',#309,#456);
#456 = DEFINITIONAL_REPRESENTATION('',(#457),#461);
#457 = LINE('',#458,#459);
#458 = CARTESIAN_POINT('',(3.14159265359,0.));
#459 = VECTOR('',#460,1.);
#460 = DIRECTION('',(0.,1.));
#461 = ( GEOMETRIC_REPRESENTATION_CONTEXT(2) 
PARAMETRIC_REPRESENTATION_CONTEXT() REPRESENTATION_CONTEXT('2D SPACE',''
  ) );
#462 = PCURVE('',#117,#463);
#463 = DEFINITIONAL_REPRESENTATION('',(#464),#467);
#464 = B_SPLINE_CURVE_WITH_KNOTS('',1,(#465,#466),.UNSPECIFIED.,.F.,.F.,
  (2,2),(0.,540.),.PIECEWISE_BEZIER_KNOTS.);
#465 = CARTESIAN_POINT('',(0.,0.));
#466 = CARTESIAN_POINT('',(0.,540.));
#467 = ( GEOMETRIC_REPRESENTATION_CONTEXT(2) 
PARAMETRIC_REPRESENTATION_CONTEXT() REPRESENTATION_CONTEXT('2D SPACE',''
  ) );
#468 = ORIENTED_EDGE('',*,*,#469,.F.);
#469 = EDGE_CURVE('',#288,#441,#470,.T.);
#470 = SURFACE_CURVE('',#471,(#479,#486),.PCURVE_S1.);
#471 = ( BOUNDED_CURVE() B_SPLINE_CURVE(6,(#472,#473,#474,#475,#476,#477
,#478),.UNSPECIFIED.,.F.,.F.) B_SPLINE_CURVE_WITH_KNOTS((7,7),(0.,
3.14159265359),.PIECEWISE_BEZIER_KNOTS.) CURVE() 
GEOMETRIC_REPRESENTATION_ITEM() RATIONAL_B_SPLINE_CURVE((1.132556574715,
    1.036346631341,0.992316309354,0.976461899693,0.992316309354,
1.036346631341,1.132556574715)) REPRESENTATION_ITEM('') );
#472 = CARTESIAN_POINT('',(9.783783783784,7.105427357601E-15,540.));
#473 = CARTESIAN_POINT('',(9.783783783784,-50.27839846984,540.));
#474 = CARTESIAN_POINT('',(-23.19961073845,-94.37512484738,540.));
#475 = CARTESIAN_POINT('',(-78.1081081081,-112.155508969,540.));
#476 = CARTESIAN_POINT('',(-133.0166054777,-94.37512484738,540.));
#477 = CARTESIAN_POINT('',(-166.,-50.27839846984,540.));
#478 = CARTESIAN_POINT('',(-166.,1.42108547152E-14,540.));
#479 = PCURVE('',#309,#480);
#480 = DEFINITIONAL_REPRESENTATION('',(#481),#485);
#481 = LINE('',#482,#483);
#482 = CARTESIAN_POINT('',(0.,540.));
#483 = VECTOR('',#484,1.);
#484 = DIRECTION('',(1.,0.));
#485 = ( GEOMETRIC_REPRESENTATION_CONTEXT(2) 
PARAMETRIC_REPRESENTATION_CONTEXT() REPRESENTATION_CONTEXT('2D SPACE',''
  ) );
#486 = PCURVE('',#246,#487);
#487 = DEFINITIONAL_REPRESENTATION('',(#488),#496);
#488 = ( BOUNDED_CURVE() B_SPLINE_CURVE(6,(#489,#490,#491,#492,#493,#494
,#495),.UNSPECIFIED.,.F.,.F.) B_SPLINE_CURVE_WITH_KNOTS((7,7),(0.,
3.14159265359),.PIECEWISE_BEZIER_KNOTS.) CURVE() 
GEOMETRIC_REPRESENTATION_ITEM() RATIONAL_B_SPLINE_CURVE((1.132556574715,
    1.036346631341,0.992316309354,0.976461899693,0.992316309354,
1.036346631341,1.132556574715)) REPRESENTATION_ITEM('') );
#489 = CARTESIAN_POINT('',(55.151005095906,-87.89189189189));
#490 = CARTESIAN_POINT('',(4.872606626063,-87.89189189189));
#491 = CARTESIAN_POINT('',(-39.22411975147,-54.90849736964));
#492 = CARTESIAN_POINT('',(-57.00450387312,-3.552713678801E-13));
#493 = CARTESIAN_POINT('',(-39.22411975147,54.90849736965));
#494 = CARTESIAN_POINT('',(4.872606626063,87.891891891892));
#495 = CARTESIAN_POINT('',(55.151005095906,87.891891891892));
#496 = ( GEOMETRIC_REPRESENTATION_CONTEXT(2) 
PARAMETRIC_REPRESENTATION_CONTEXT() REPRESENTATION_CONTEXT('2D SPACE',''
  ) );
#497 = ADVANCED_FACE('',(#498),#117,.T.);
#498 = FACE_BOUND('',#499,.T.);
#499 = EDGE_LOOP('',(#500,#501,#520,#521));
#500 = ORIENTED_EDGE('',*,*,#440,.F.);
#501 = ORIENTED_EDGE('',*,*,#502,.T.);
#502 = EDGE_CURVE('',#410,#22,#503,.T.);
#503 = SURFACE_CURVE('',#504,(#507,#514),.PCURVE_S1.);
#504 = B_SPLINE_CURVE_WITH_KNOTS('',1,(#505,#506),.UNSPECIFIED.,.F.,.F.,
  (2,2),(0.,4.),.PIECEWISE_BEZIER_KNOTS.);
#505 = CARTESIAN_POINT('',(166.,5.684341886081E-14,5.684341886081E-14));
#506 = CARTESIAN_POINT('',(170.,-2.84217094304E-14,-5.684341886081E-14)
  );
#507 = PCURVE('',#117,#508);
#508 = DEFINITIONAL_REPRESENTATION('',(#509),#513);
#509 = LINE('',#510,#511);
#510 = CARTESIAN_POINT('',(0.,0.));
#511 = VECTOR('',#512,1.);
#512 = DIRECTION('',(1.,0.));
#513 = ( GEOMETRIC_REPRESENTATION_CONTEXT(2) 
PARAMETRIC_REPRESENTATION_CONTEXT() REPRESENTATION_CONTEXT('2D SPACE',''
  ) );
#514 = PCURVE('',#164,#515);
#515 = DEFINITIONAL_REPRESENTATION('',(#516),#519);
#516 = B_SPLINE_CURVE_WITH_KNOTS('',1,(#517,#518),.UNSPECIFIED.,.F.,.F.,
  (2,2),(0.,4.),.PIECEWISE_BEZIER_KNOTS.);
#517 = CARTESIAN_POINT('',(87.891891891892,-55.1510050959));
#518 = CARTESIAN_POINT('',(91.891891891892,-55.1510050959));
#519 = ( GEOMETRIC_REPRESENTATION_CONTEXT(2) 
PARAMETRIC_REPRESENTATION_CONTEXT() REPRESENTATION_CONTEXT('2D SPACE',''
  ) );
#520 = ORIENTED_EDGE('',*,*,#21,.T.);
#521 = ORIENTED_EDGE('',*,*,#522,.F.);
#522 = EDGE_CURVE('',#441,#24,#523,.T.);
#523 = SURFACE_CURVE('',#524,(#527,#534),.PCURVE_S1.);
#524 = B_SPLINE_CURVE_WITH_KNOTS('',1,(#525,#526),.UNSPECIFIED.,.F.,.F.,
  (2,2),(0.,4.),.PIECEWISE_BEZIER_KNOTS.);
#525 = CARTESIAN_POINT('',(-166.,0.,540.));
#526 = CARTESIAN_POINT('',(-170.,-2.84217094304E-14,540.));
#527 = PCURVE('',#117,#528);
#528 = DEFINITIONAL_REPRESENTATION('',(#529),#533);
#529 = LINE('',#530,#531);
#530 = CARTESIAN_POINT('',(0.,540.));
#531 = VECTOR('',#532,1.);
#532 = DIRECTION('',(1.,0.));
#533 = ( GEOMETRIC_REPRESENTATION_CONTEXT(2) 
PARAMETRIC_REPRESENTATION_CONTEXT() REPRESENTATION_CONTEXT('2D SPACE',''
  ) );
#534 = PCURVE('',#246,#535);
#535 = DEFINITIONAL_REPRESENTATION('',(#536),#539);
#536 = B_SPLINE_CURVE_WITH_KNOTS('',1,(#537,#538),.UNSPECIFIED.,.F.,.F.,
  (2,2),(0.,4.),.PIECEWISE_BEZIER_KNOTS.);
#537 = CARTESIAN_POINT('',(55.151005095906,87.891891891892));
#538 = CARTESIAN_POINT('',(55.151005095906,91.891891891892));
#539 = ( GEOMETRIC_REPRESENTATION_CONTEXT(2) 
PARAMETRIC_REPRESENTATION_CONTEXT() REPRESENTATION_CONTEXT('2D SPACE',''
  ) );
#540 = ADVANCED_FACE('',(#541),#164,.F.);
#541 = FACE_BOUND('',#542,.F.);
#542 = EDGE_LOOP('',(#543,#544,#545,#546));
#543 = ORIENTED_EDGE('',*,*,#144,.T.);
#544 = ORIENTED_EDGE('',*,*,#266,.T.);
#545 = ORIENTED_EDGE('',*,*,#409,.T.);
#546 = ORIENTED_EDGE('',*,*,#502,.T.);
#547 = ADVANCED_FACE('',(#548),#246,.T.);
#548 = FACE_BOUND('',#549,.T.);
#549 = EDGE_LOOP('',(#550,#551,#552,#553));
#550 = ORIENTED_EDGE('',*,*,#228,.T.);
#551 = ORIENTED_EDGE('',*,*,#386,.T.);
#552 = ORIENTED_EDGE('',*,*,#469,.T.);
#553 = ORIENTED_EDGE('',*,*,#522,.T.);
#554 = ( GEOMETRIC_REPRESENTATION_CONTEXT(3) 
GLOBAL_UNCERTAINTY_ASSIGNED_CONTEXT((#558)) GLOBAL_UNIT_ASSIGNED_CONTEXT
((#555,#556,#557)) REPRESENTATION_CONTEXT('Context #1',
  '3D Context with UNIT and UNCERTAINTY') );
#555 = ( LENGTH_UNIT() NAMED_UNIT(*) SI_UNIT(.MILLI.,.METRE.) );
#556 = ( NAMED_UNIT(*) PLANE_ANGLE_UNIT() SI_UNIT($,.RADIAN.) );
#557 = ( NAMED_UNIT(*) SI_UNIT($,.STERADIAN.) SOLID_ANGLE_UNIT() );
#558 = UNCERTAINTY_MEASURE_WITH_UNIT(LENGTH_MEASURE(2.E-05),#555,
  'distance_accuracy_value','confusion accuracy');
#559 = PRODUCT_RELATED_PRODUCT_CATEGORY('part',$,(#7));
ENDSEC;
END-ISO-10303-21;
